<?xml version="1.0" encoding="UTF-8" standalone="no"?>
<!DOCTYPE svg PUBLIC "-//W3C//DTD SVG 1.1//EN"
 "http://www.w3.org/Graphics/SVG/1.1/DTD/svg11.dtd">
<!-- Generated by graphviz version 2.40.1 (20161225.0304)
 -->
<!-- Title: dependencies Pages: 1 -->
<svg width="504pt" height="284pt"
 viewBox="0.00 0.00 504.00 284.00" xmlns="http://www.w3.org/2000/svg" xmlns:xlink="http://www.w3.org/1999/xlink">
<g id="graph0" class="graph" transform="scale(1 1) rotate(0) translate(4 280)">
<title>dependencies</title>
<polygon fill="#ffffff" stroke="transparent" points="-4,4 -4,-280 500,-280 500,4 -4,4"/>
<text text-anchor="start" x="227.0091" y="-42.4" font-family="sans-serif" font-weight="bold" font-size="14.00" fill="#000000">Legend</text>
<polygon fill="#ffffb3" stroke="transparent" points="14,-10 14,-30 34,-30 34,-10 14,-10"/>
<text text-anchor="start" x="37.629" y="-15.4" font-family="sans-serif" font-size="14.00" fill="#000000"> &#160;Declarations</text>
<polygon fill="#8dd3c7" stroke="transparent" points="127,-10 127,-30 147,-30 147,-10 127,-10"/>
<text text-anchor="start" x="150.7251" y="-15.4" font-family="sans-serif" font-size="14.00" fill="#000000"> &#160;Module</text>
<polygon fill="#80b1d3" stroke="transparent" points="213,-10 213,-30 233,-30 233,-10 213,-10"/>
<text text-anchor="start" x="236.7812" y="-15.4" font-family="sans-serif" font-size="14.00" fill="#000000"> &#160;Bootstrap</text>
<polygon fill="#fdb462" stroke="transparent" points="310,-10 310,-30 330,-30 330,-10 310,-10"/>
<text text-anchor="start" x="333.6732" y="-15.4" font-family="sans-serif" font-size="14.00" fill="#000000"> &#160;Providers</text>
<polygon fill="#fb8072" stroke="transparent" points="406,-10 406,-30 426,-30 426,-10 406,-10"/>
<text text-anchor="start" x="429.7258" y="-15.4" font-family="sans-serif" font-size="14.00" fill="#000000"> &#160;Exports</text>
<g id="clust1" class="cluster">
<title>cluster_G43SharedPipesModule</title>
<polygon fill="none" stroke="#000000" stroke-dasharray="1,5" points="119,-70 119,-268 377,-268 377,-70 119,-70"/>
</g>
<g id="clust2" class="cluster">
<title>cluster_G43SharedPipesModule_declarations</title>
<polygon fill="none" stroke="#000000" points="131,-78 131,-130 365,-130 365,-78 131,-78"/>
</g>
<g id="clust6" class="cluster">
<title>cluster_G43SharedPipesModule_exports</title>
<polygon fill="none" stroke="#000000" points="127,-208 127,-260 369,-260 369,-208 127,-208"/>
</g>
<!-- G43FileSizePipe -->
<g id="node1" class="node">
<title>G43FileSizePipe</title>
<polygon fill="#ffffb3" stroke="#000000" points="357.3753,-122 246.6247,-122 246.6247,-86 357.3753,-86 357.3753,-122"/>
<text text-anchor="middle" x="302" y="-99.8" font-family="Times,serif" font-size="14.00" fill="#000000">G43FileSizePipe</text>
</g>
<!-- G43SharedPipesModule -->
<g id="node3" class="node">
<title>G43SharedPipesModule</title>
<polygon fill="#8dd3c7" stroke="#000000" points="324.3613,-187 321.3613,-191 300.3613,-191 297.3613,-187 171.6387,-187 171.6387,-151 324.3613,-151 324.3613,-187"/>
<text text-anchor="middle" x="248" y="-164.8" font-family="Times,serif" font-size="14.00" fill="#000000">G43SharedPipesModule</text>
</g>
<!-- G43FileSizePipe&#45;&gt;G43SharedPipesModule -->
<g id="edge1" class="edge">
<title>G43FileSizePipe&#45;&gt;G43SharedPipesModule</title>
<path fill="none" stroke="#000000" d="M285.4965,-122.1061C285.4965,-122.1061 285.4965,-140.991 285.4965,-140.991"/>
<polygon fill="#000000" stroke="#000000" points="281.9966,-140.9909 285.4965,-150.991 288.9966,-140.991 281.9966,-140.9909"/>
</g>
<!-- G43SafePipe -->
<g id="node2" class="node">
<title>G43SafePipe</title>
<polygon fill="#ffffb3" stroke="#000000" points="228.8669,-122 139.1331,-122 139.1331,-86 228.8669,-86 228.8669,-122"/>
<text text-anchor="middle" x="184" y="-99.8" font-family="Times,serif" font-size="14.00" fill="#000000">G43SafePipe</text>
</g>
<!-- G43SafePipe&#45;&gt;G43SharedPipesModule -->
<g id="edge2" class="edge">
<title>G43SafePipe&#45;&gt;G43SharedPipesModule</title>
<path fill="none" stroke="#000000" d="M200.2514,-122.1061C200.2514,-122.1061 200.2514,-140.991 200.2514,-140.991"/>
<polygon fill="#000000" stroke="#000000" points="196.7515,-140.9909 200.2514,-150.991 203.7515,-140.991 196.7515,-140.9909"/>
</g>
<!-- G43FileSizePipe  -->
<g id="node4" class="node">
<title>G43FileSizePipe </title>
<polygon fill="#fb8072" stroke="#000000" points="361.3758,-252 246.6242,-252 246.6242,-216 361.3758,-216 361.3758,-252"/>
<text text-anchor="middle" x="304" y="-229.8" font-family="Times,serif" font-size="14.00" fill="#000000">G43FileSizePipe </text>
</g>
<!-- G43SharedPipesModule&#45;&gt;G43FileSizePipe  -->
<g id="edge3" class="edge">
<title>G43SharedPipesModule&#45;&gt;G43FileSizePipe </title>
<path fill="none" stroke="#000000" stroke-dasharray="5,2" d="M285.6215,-187.1061C285.6215,-187.1061 285.6215,-205.991 285.6215,-205.991"/>
<polygon fill="#000000" stroke="#000000" points="282.1216,-205.9909 285.6215,-215.991 289.1216,-205.991 282.1216,-205.9909"/>
</g>
<!-- G43SafePipe  -->
<g id="node5" class="node">
<title>G43SafePipe </title>
<polygon fill="#fb8072" stroke="#000000" points="228.8675,-252 135.1325,-252 135.1325,-216 228.8675,-216 228.8675,-252"/>
<text text-anchor="middle" x="182" y="-229.8" font-family="Times,serif" font-size="14.00" fill="#000000">G43SafePipe </text>
</g>
<!-- G43SharedPipesModule&#45;&gt;G43SafePipe  -->
<g id="edge4" class="edge">
<title>G43SharedPipesModule&#45;&gt;G43SafePipe </title>
<path fill="none" stroke="#000000" stroke-dasharray="5,2" d="M200.1264,-187.1061C200.1264,-187.1061 200.1264,-205.991 200.1264,-205.991"/>
<polygon fill="#000000" stroke="#000000" points="196.6265,-205.9909 200.1264,-215.991 203.6265,-205.991 196.6265,-205.9909"/>
</g>
</g>
</svg>
