<?xml version="1.0" encoding="UTF-8" standalone="no"?>
<!DOCTYPE svg PUBLIC "-//W3C//DTD SVG 1.1//EN"
 "http://www.w3.org/Graphics/SVG/1.1/DTD/svg11.dtd">
<!-- Generated by graphviz version 2.40.1 (20161225.0304)
 -->
<!-- Title: dependencies Pages: 1 -->
<svg width="1041pt" height="284pt"
 viewBox="0.00 0.00 1041.00 284.00" xmlns="http://www.w3.org/2000/svg" xmlns:xlink="http://www.w3.org/1999/xlink">
<g id="graph0" class="graph" transform="scale(1 1) rotate(0) translate(4 280)">
<title>dependencies</title>
<polygon fill="#ffffff" stroke="transparent" points="-4,4 -4,-280 1037,-280 1037,4 -4,4"/>
<text text-anchor="start" x="495.5091" y="-42.4" font-family="sans-serif" font-weight="bold" font-size="14.00" fill="#000000">Legend</text>
<polygon fill="#ffffb3" stroke="transparent" points="282.5,-10 282.5,-30 302.5,-30 302.5,-10 282.5,-10"/>
<text text-anchor="start" x="306.129" y="-15.4" font-family="sans-serif" font-size="14.00" fill="#000000"> &#160;Declarations</text>
<polygon fill="#8dd3c7" stroke="transparent" points="395.5,-10 395.5,-30 415.5,-30 415.5,-10 395.5,-10"/>
<text text-anchor="start" x="419.2251" y="-15.4" font-family="sans-serif" font-size="14.00" fill="#000000"> &#160;Module</text>
<polygon fill="#80b1d3" stroke="transparent" points="481.5,-10 481.5,-30 501.5,-30 501.5,-10 481.5,-10"/>
<text text-anchor="start" x="505.2812" y="-15.4" font-family="sans-serif" font-size="14.00" fill="#000000"> &#160;Bootstrap</text>
<polygon fill="#fdb462" stroke="transparent" points="578.5,-10 578.5,-30 598.5,-30 598.5,-10 578.5,-10"/>
<text text-anchor="start" x="602.1732" y="-15.4" font-family="sans-serif" font-size="14.00" fill="#000000"> &#160;Providers</text>
<polygon fill="#fb8072" stroke="transparent" points="674.5,-10 674.5,-30 694.5,-30 694.5,-10 674.5,-10"/>
<text text-anchor="start" x="698.2258" y="-15.4" font-family="sans-serif" font-size="14.00" fill="#000000"> &#160;Exports</text>
<g id="clust1" class="cluster">
<title>cluster_MenuModule</title>
<polygon fill="none" stroke="#000000" stroke-dasharray="1,5" points="8,-70 8,-268 1025,-268 1025,-70 8,-70"/>
</g>
<g id="clust2" class="cluster">
<title>cluster_MenuModule_declarations</title>
<polygon fill="none" stroke="#000000" points="29,-78 29,-130 1009,-130 1009,-78 29,-78"/>
</g>
<g id="clust10" class="cluster">
<title>cluster_MenuModule_exports</title>
<polygon fill="none" stroke="#000000" points="16,-208 16,-260 1017,-260 1017,-208 16,-208"/>
</g>
<!-- MenuComponent -->
<g id="node1" class="node">
<title>MenuComponent</title>
<polygon fill="#ffffb3" stroke="#000000" points="1000.9916,-122 887.0084,-122 887.0084,-86 1000.9916,-86 1000.9916,-122"/>
<text text-anchor="middle" x="944" y="-99.8" font-family="Times,serif" font-size="14.00" fill="#000000">MenuComponent</text>
</g>
<!-- MenuModule -->
<g id="node7" class="node">
<title>MenuModule</title>
<polygon fill="#8dd3c7" stroke="#000000" points="477.2092,-187 474.2092,-191 453.2092,-191 450.2092,-187 384.7908,-187 384.7908,-151 477.2092,-151 477.2092,-187"/>
<text text-anchor="middle" x="431" y="-164.8" font-family="Times,serif" font-size="14.00" fill="#000000">MenuModule</text>
</g>
<!-- MenuComponent&#45;&gt;MenuModule -->
<g id="edge1" class="edge">
<title>MenuComponent&#45;&gt;MenuModule</title>
<path fill="none" stroke="#000000" d="M964.4153,-122.2222C964.4153,-140.8285 964.4153,-167 964.4153,-167 964.4153,-167 487.404,-167 487.404,-167"/>
<polygon fill="#000000" stroke="#000000" points="487.404,-163.5001 477.404,-167 487.4039,-170.5001 487.404,-163.5001"/>
</g>
<!-- MenuContainerComponent -->
<g id="node2" class="node">
<title>MenuContainerComponent</title>
<polygon fill="#ffffb3" stroke="#000000" points="868.6993,-122 699.3007,-122 699.3007,-86 868.6993,-86 868.6993,-122"/>
<text text-anchor="middle" x="784" y="-99.8" font-family="Times,serif" font-size="14.00" fill="#000000">MenuContainerComponent</text>
</g>
<!-- MenuContainerComponent&#45;&gt;MenuModule -->
<g id="edge2" class="edge">
<title>MenuContainerComponent&#45;&gt;MenuModule</title>
<path fill="none" stroke="#000000" d="M812.6165,-122.0336C812.6165,-139.0597 812.6165,-162 812.6165,-162 812.6165,-162 487.4122,-162 487.4122,-162"/>
<polygon fill="#000000" stroke="#000000" points="487.4122,-158.5001 477.4122,-162 487.4121,-165.5001 487.4122,-158.5001"/>
</g>
<!-- MenuContentComponent -->
<g id="node3" class="node">
<title>MenuContentComponent</title>
<polygon fill="#ffffb3" stroke="#000000" points="681.3243,-122 522.6757,-122 522.6757,-86 681.3243,-86 681.3243,-122"/>
<text text-anchor="middle" x="602" y="-99.8" font-family="Times,serif" font-size="14.00" fill="#000000">MenuContentComponent</text>
</g>
<!-- MenuContentComponent&#45;&gt;MenuModule -->
<g id="edge3" class="edge">
<title>MenuContentComponent&#45;&gt;MenuModule</title>
<path fill="none" stroke="#000000" d="M628.3873,-122.2396C628.3873,-137.5706 628.3873,-157 628.3873,-157 628.3873,-157 487.2786,-157 487.2786,-157"/>
<polygon fill="#000000" stroke="#000000" points="487.2786,-153.5001 477.2786,-157 487.2785,-160.5001 487.2786,-153.5001"/>
</g>
<!-- MenuDrawerComponent -->
<g id="node4" class="node">
<title>MenuDrawerComponent</title>
<polygon fill="#ffffb3" stroke="#000000" points="504.9552,-122 349.0448,-122 349.0448,-86 504.9552,-86 504.9552,-122"/>
<text text-anchor="middle" x="427" y="-99.8" font-family="Times,serif" font-size="14.00" fill="#000000">MenuDrawerComponent</text>
</g>
<!-- MenuDrawerComponent&#45;&gt;MenuModule -->
<g id="edge4" class="edge">
<title>MenuDrawerComponent&#45;&gt;MenuModule</title>
<path fill="none" stroke="#000000" d="M431,-122.1061C431,-122.1061 431,-140.991 431,-140.991"/>
<polygon fill="#000000" stroke="#000000" points="427.5001,-140.9909 431,-150.991 434.5001,-140.991 427.5001,-140.9909"/>
</g>
<!-- MenuItemComponent -->
<g id="node5" class="node">
<title>MenuItemComponent</title>
<polygon fill="#ffffb3" stroke="#000000" points="330.6484,-122 191.3516,-122 191.3516,-86 330.6484,-86 330.6484,-122"/>
<text text-anchor="middle" x="261" y="-99.8" font-family="Times,serif" font-size="14.00" fill="#000000">MenuItemComponent</text>
</g>
<!-- MenuItemComponent&#45;&gt;MenuModule -->
<g id="edge5" class="edge">
<title>MenuItemComponent&#45;&gt;MenuModule</title>
<path fill="none" stroke="#000000" d="M280.7747,-122.0091C280.7747,-138.0494 280.7747,-159 280.7747,-159 280.7747,-159 374.7017,-159 374.7017,-159"/>
<polygon fill="#000000" stroke="#000000" points="374.7017,-162.5001 384.7017,-159 374.7016,-155.5001 374.7017,-162.5001"/>
</g>
<!-- MenuTopComponent -->
<g id="node6" class="node">
<title>MenuTopComponent</title>
<polygon fill="#ffffb3" stroke="#000000" points="173.045,-122 36.955,-122 36.955,-86 173.045,-86 173.045,-122"/>
<text text-anchor="middle" x="105" y="-99.8" font-family="Times,serif" font-size="14.00" fill="#000000">MenuTopComponent</text>
</g>
<!-- MenuTopComponent&#45;&gt;MenuModule -->
<g id="edge6" class="edge">
<title>MenuTopComponent&#45;&gt;MenuModule</title>
<path fill="none" stroke="#000000" d="M168.6471,-122.2667C168.6471,-140.5552 168.6471,-166 168.6471,-166 168.6471,-166 374.7005,-166 374.7005,-166"/>
<polygon fill="#000000" stroke="#000000" points="374.7005,-169.5001 384.7005,-166 374.7004,-162.5001 374.7005,-169.5001"/>
</g>
<!-- MenuComponent  -->
<g id="node8" class="node">
<title>MenuComponent </title>
<polygon fill="#fb8072" stroke="#000000" points="1008.9926,-252 891.0074,-252 891.0074,-216 1008.9926,-216 1008.9926,-252"/>
<text text-anchor="middle" x="950" y="-229.8" font-family="Times,serif" font-size="14.00" fill="#000000">MenuComponent </text>
</g>
<!-- MenuModule&#45;&gt;MenuComponent  -->
<g id="edge7" class="edge">
<title>MenuModule&#45;&gt;MenuComponent </title>
<path fill="none" stroke="#000000" stroke-dasharray="5,2" d="M477.2949,-172C600.6341,-172 927.8347,-172 927.8347,-172 927.8347,-172 927.8347,-205.7333 927.8347,-205.7333"/>
<polygon fill="#000000" stroke="#000000" points="924.3348,-205.7333 927.8347,-215.7333 931.3348,-205.7333 924.3348,-205.7333"/>
</g>
<!-- MenuContainerComponent  -->
<g id="node9" class="node">
<title>MenuContainerComponent </title>
<polygon fill="#fb8072" stroke="#000000" points="873.1995,-252 700.8005,-252 700.8005,-216 873.1995,-216 873.1995,-252"/>
<text text-anchor="middle" x="787" y="-229.8" font-family="Times,serif" font-size="14.00" fill="#000000">MenuContainerComponent </text>
</g>
<!-- MenuModule&#45;&gt;MenuContainerComponent  -->
<g id="edge8" class="edge">
<title>MenuModule&#45;&gt;MenuContainerComponent </title>
<path fill="none" stroke="#000000" stroke-dasharray="5,2" d="M477.3095,-177C567.2111,-177 756.6335,-177 756.6335,-177 756.6335,-177 756.6335,-205.9648 756.6335,-205.9648"/>
<polygon fill="#000000" stroke="#000000" points="753.1336,-205.9648 756.6335,-215.9648 760.1336,-205.9649 753.1336,-205.9648"/>
</g>
<!-- MenuContentComponent  -->
<g id="node10" class="node">
<title>MenuContentComponent </title>
<polygon fill="#fb8072" stroke="#000000" points="682.8241,-252 521.1759,-252 521.1759,-216 682.8241,-216 682.8241,-252"/>
<text text-anchor="middle" x="602" y="-229.8" font-family="Times,serif" font-size="14.00" fill="#000000">MenuContentComponent </text>
</g>
<!-- MenuModule&#45;&gt;MenuContentComponent  -->
<g id="edge9" class="edge">
<title>MenuModule&#45;&gt;MenuContentComponent </title>
<path fill="none" stroke="#000000" stroke-dasharray="5,2" d="M477.154,-182C519.4759,-182 575.6127,-182 575.6127,-182 575.6127,-182 575.6127,-205.8129 575.6127,-205.8129"/>
<polygon fill="#000000" stroke="#000000" points="572.1128,-205.8129 575.6127,-215.8129 579.1128,-205.813 572.1128,-205.8129"/>
</g>
<!-- MenuDrawerComponent  -->
<g id="node11" class="node">
<title>MenuDrawerComponent </title>
<polygon fill="#fb8072" stroke="#000000" points="502.9559,-252 343.0441,-252 343.0441,-216 502.9559,-216 502.9559,-252"/>
<text text-anchor="middle" x="423" y="-229.8" font-family="Times,serif" font-size="14.00" fill="#000000">MenuDrawerComponent </text>
</g>
<!-- MenuModule&#45;&gt;MenuDrawerComponent  -->
<g id="edge10" class="edge">
<title>MenuModule&#45;&gt;MenuDrawerComponent </title>
<path fill="none" stroke="#000000" stroke-dasharray="5,2" d="M431,-187.1061C431,-187.1061 431,-205.991 431,-205.991"/>
<polygon fill="#000000" stroke="#000000" points="427.5001,-205.9909 431,-215.991 434.5001,-205.991 427.5001,-205.9909"/>
</g>
<!-- MenuItemComponent  -->
<g id="node12" class="node">
<title>MenuItemComponent </title>
<polygon fill="#fb8072" stroke="#000000" points="325.6481,-252 182.3519,-252 182.3519,-216 325.6481,-216 325.6481,-252"/>
<text text-anchor="middle" x="254" y="-229.8" font-family="Times,serif" font-size="14.00" fill="#000000">MenuItemComponent </text>
</g>
<!-- MenuModule&#45;&gt;MenuItemComponent  -->
<g id="edge11" class="edge">
<title>MenuModule&#45;&gt;MenuItemComponent </title>
<path fill="none" stroke="#000000" stroke-dasharray="5,2" d="M384.7819,-180C327.1104,-180 235.9753,-180 235.9753,-180 235.9753,-180 235.9753,-205.7181 235.9753,-205.7181"/>
<polygon fill="#000000" stroke="#000000" points="232.4754,-205.718 235.9753,-215.7181 239.4754,-205.7181 232.4754,-205.718"/>
</g>
<!-- MenuTopComponent  -->
<g id="node13" class="node">
<title>MenuTopComponent </title>
<polygon fill="#fb8072" stroke="#000000" points="164.0442,-252 23.9558,-252 23.9558,-216 164.0442,-216 164.0442,-252"/>
<text text-anchor="middle" x="94" y="-229.8" font-family="Times,serif" font-size="14.00" fill="#000000">MenuTopComponent </text>
</g>
<!-- MenuModule&#45;&gt;MenuTopComponent  -->
<g id="edge12" class="edge">
<title>MenuModule&#45;&gt;MenuTopComponent </title>
<path fill="none" stroke="#000000" stroke-dasharray="5,2" d="M384.6799,-173C293.6872,-173 100.375,-173 100.375,-173 100.375,-173 100.375,-205.698 100.375,-205.698"/>
<polygon fill="#000000" stroke="#000000" points="96.8751,-205.698 100.375,-215.698 103.8751,-205.698 96.8751,-205.698"/>
</g>
</g>
</svg>
