<?xml version="1.0" encoding="UTF-8" standalone="no"?>
<!DOCTYPE svg PUBLIC "-//W3C//DTD SVG 1.1//EN"
 "http://www.w3.org/Graphics/SVG/1.1/DTD/svg11.dtd">
<!-- Generated by graphviz version 2.40.1 (20161225.0304)
 -->
<!-- Title: dependencies Pages: 1 -->
<svg width="599pt" height="284pt"
 viewBox="0.00 0.00 599.00 284.00" xmlns="http://www.w3.org/2000/svg" xmlns:xlink="http://www.w3.org/1999/xlink">
<g id="graph0" class="graph" transform="scale(1 1) rotate(0) translate(4 280)">
<title>dependencies</title>
<polygon fill="#ffffff" stroke="transparent" points="-4,4 -4,-280 595,-280 595,4 -4,4"/>
<text text-anchor="start" x="274.5091" y="-42.4" font-family="sans-serif" font-weight="bold" font-size="14.00" fill="#000000">Legend</text>
<polygon fill="#ffffb3" stroke="transparent" points="61.5,-10 61.5,-30 81.5,-30 81.5,-10 61.5,-10"/>
<text text-anchor="start" x="85.129" y="-15.4" font-family="sans-serif" font-size="14.00" fill="#000000"> &#160;Declarations</text>
<polygon fill="#8dd3c7" stroke="transparent" points="174.5,-10 174.5,-30 194.5,-30 194.5,-10 174.5,-10"/>
<text text-anchor="start" x="198.2251" y="-15.4" font-family="sans-serif" font-size="14.00" fill="#000000"> &#160;Module</text>
<polygon fill="#80b1d3" stroke="transparent" points="260.5,-10 260.5,-30 280.5,-30 280.5,-10 260.5,-10"/>
<text text-anchor="start" x="284.2812" y="-15.4" font-family="sans-serif" font-size="14.00" fill="#000000"> &#160;Bootstrap</text>
<polygon fill="#fdb462" stroke="transparent" points="357.5,-10 357.5,-30 377.5,-30 377.5,-10 357.5,-10"/>
<text text-anchor="start" x="381.1732" y="-15.4" font-family="sans-serif" font-size="14.00" fill="#000000"> &#160;Providers</text>
<polygon fill="#fb8072" stroke="transparent" points="453.5,-10 453.5,-30 473.5,-30 473.5,-10 453.5,-10"/>
<text text-anchor="start" x="477.2258" y="-15.4" font-family="sans-serif" font-size="14.00" fill="#000000"> &#160;Exports</text>
<g id="clust1" class="cluster">
<title>cluster_TableMakerModule</title>
<polygon fill="none" stroke="#000000" stroke-dasharray="1,5" points="8,-70 8,-268 583,-268 583,-70 8,-70"/>
</g>
<g id="clust2" class="cluster">
<title>cluster_TableMakerModule_declarations</title>
<polygon fill="none" stroke="#000000" points="21,-78 21,-130 570,-130 570,-78 21,-78"/>
</g>
<g id="clust7" class="cluster">
<title>cluster_TableMakerModule_exports</title>
<polygon fill="none" stroke="#000000" points="16,-208 16,-260 575,-260 575,-208 16,-208"/>
</g>
<!-- CoreTableColumnComponent -->
<g id="node1" class="node">
<title>CoreTableColumnComponent</title>
<polygon fill="#ffffb3" stroke="#000000" points="561.535,-122 376.465,-122 376.465,-86 561.535,-86 561.535,-122"/>
<text text-anchor="middle" x="469" y="-99.8" font-family="Times,serif" font-size="14.00" fill="#000000">CoreTableColumnComponent</text>
</g>
<!-- TableMakerModule -->
<g id="node4" class="node">
<title>TableMakerModule</title>
<polygon fill="#8dd3c7" stroke="#000000" points="351.9566,-187 348.9566,-191 327.9566,-191 324.9566,-187 224.0434,-187 224.0434,-151 351.9566,-151 351.9566,-187"/>
<text text-anchor="middle" x="288" y="-164.8" font-family="Times,serif" font-size="14.00" fill="#000000">TableMakerModule</text>
</g>
<!-- CoreTableColumnComponent&#45;&gt;TableMakerModule -->
<g id="edge1" class="edge">
<title>CoreTableColumnComponent&#45;&gt;TableMakerModule</title>
<path fill="none" stroke="#000000" d="M500.3391,-122.0225C500.3391,-139.3734 500.3391,-163 500.3391,-163 500.3391,-163 361.9967,-163 361.9967,-163"/>
<polygon fill="#000000" stroke="#000000" points="361.9967,-159.5001 351.9967,-163 361.9966,-166.5001 361.9967,-159.5001"/>
</g>
<!-- CoreTableComponent -->
<g id="node2" class="node">
<title>CoreTableComponent</title>
<polygon fill="#ffffb3" stroke="#000000" points="358.4172,-122 217.5828,-122 217.5828,-86 358.4172,-86 358.4172,-122"/>
<text text-anchor="middle" x="288" y="-99.8" font-family="Times,serif" font-size="14.00" fill="#000000">CoreTableComponent</text>
</g>
<!-- CoreTableComponent&#45;&gt;TableMakerModule -->
<g id="edge2" class="edge">
<title>CoreTableComponent&#45;&gt;TableMakerModule</title>
<path fill="none" stroke="#000000" d="M288,-122.1061C288,-122.1061 288,-140.991 288,-140.991"/>
<polygon fill="#000000" stroke="#000000" points="284.5001,-140.9909 288,-150.991 291.5001,-140.991 284.5001,-140.9909"/>
</g>
<!-- CoreTableFilterComponent -->
<g id="node3" class="node">
<title>CoreTableFilterComponent</title>
<polygon fill="#ffffb3" stroke="#000000" points="199.2464,-122 28.7536,-122 28.7536,-86 199.2464,-86 199.2464,-122"/>
<text text-anchor="middle" x="114" y="-99.8" font-family="Times,serif" font-size="14.00" fill="#000000">CoreTableFilterComponent</text>
</g>
<!-- CoreTableFilterComponent&#45;&gt;TableMakerModule -->
<g id="edge3" class="edge">
<title>CoreTableFilterComponent&#45;&gt;TableMakerModule</title>
<path fill="none" stroke="#000000" d="M141.6244,-122.0225C141.6244,-139.3734 141.6244,-163 141.6244,-163 141.6244,-163 213.7975,-163 213.7975,-163"/>
<polygon fill="#000000" stroke="#000000" points="213.7976,-166.5001 223.7975,-163 213.7975,-159.5001 213.7976,-166.5001"/>
</g>
<!-- CoreTableColumnComponent  -->
<g id="node5" class="node">
<title>CoreTableColumnComponent </title>
<polygon fill="#fb8072" stroke="#000000" points="566.5344,-252 377.4656,-252 377.4656,-216 566.5344,-216 566.5344,-252"/>
<text text-anchor="middle" x="472" y="-229.8" font-family="Times,serif" font-size="14.00" fill="#000000">CoreTableColumnComponent </text>
</g>
<!-- TableMakerModule&#45;&gt;CoreTableColumnComponent  -->
<g id="edge4" class="edge">
<title>TableMakerModule&#45;&gt;CoreTableColumnComponent </title>
<path fill="none" stroke="#000000" stroke-dasharray="5,2" d="M351.9998,-175C393.1306,-175 438.9109,-175 438.9109,-175 438.9109,-175 438.9109,-205.9775 438.9109,-205.9775"/>
<polygon fill="#000000" stroke="#000000" points="435.411,-205.9774 438.9109,-215.9775 442.411,-205.9775 435.411,-205.9774"/>
</g>
<!-- CoreTableComponent  -->
<g id="node6" class="node">
<title>CoreTableComponent </title>
<polygon fill="#fb8072" stroke="#000000" points="359.9166,-252 216.0834,-252 216.0834,-216 359.9166,-216 359.9166,-252"/>
<text text-anchor="middle" x="288" y="-229.8" font-family="Times,serif" font-size="14.00" fill="#000000">CoreTableComponent </text>
</g>
<!-- TableMakerModule&#45;&gt;CoreTableComponent  -->
<g id="edge5" class="edge">
<title>TableMakerModule&#45;&gt;CoreTableComponent </title>
<path fill="none" stroke="#000000" stroke-dasharray="5,2" d="M288,-187.1061C288,-187.1061 288,-205.991 288,-205.991"/>
<polygon fill="#000000" stroke="#000000" points="284.5001,-205.9909 288,-215.991 291.5001,-205.991 284.5001,-205.9909"/>
</g>
<!-- CoreTableFilterComponent  -->
<g id="node7" class="node">
<title>CoreTableFilterComponent </title>
<polygon fill="#fb8072" stroke="#000000" points="198.2464,-252 23.7536,-252 23.7536,-216 198.2464,-216 198.2464,-252"/>
<text text-anchor="middle" x="111" y="-229.8" font-family="Times,serif" font-size="14.00" fill="#000000">CoreTableFilterComponent </text>
</g>
<!-- TableMakerModule&#45;&gt;CoreTableFilterComponent  -->
<g id="edge6" class="edge">
<title>TableMakerModule&#45;&gt;CoreTableFilterComponent </title>
<path fill="none" stroke="#000000" stroke-dasharray="5,2" d="M223.8093,-175C164.3734,-175 85.1256,-175 85.1256,-175 85.1256,-175 85.1256,-205.9775 85.1256,-205.9775"/>
<polygon fill="#000000" stroke="#000000" points="81.6257,-205.9774 85.1256,-215.9775 88.6257,-205.9775 81.6257,-205.9774"/>
</g>
</g>
</svg>
